<?xml version="1.0" encoding="UTF-8"?>
<!DOCTYPE svg PUBLIC "-//W3C//DTD SVG 1.1//EN"
    "http://www.w3.org/Graphics/SVG/1.1/DTD/svg11.dtd" >
<svg contentScriptType="text/ecmascript" width="960px"
     xmlns:xlink="http://www.w3.org/1999/xlink" zoomAndPan="magnify"
     contentStyleType="text/css" viewBox="-181 -159 363 318" height="841px"
     preserveAspectRatio="xMidYMid meet" xmlns="http://www.w3.org/2000/svg"
     version="1.1">
    <g id="edges">
        <path fill="none" stroke-width="6.4288945"
              d="M -171.807236,-0.959961 C -124.938850,11.879623 -73.895660,101.441574 -86.735245,148.309952"
              class="1 2" stroke-opacity="1.0" stroke="#cc4ccc"/>
        <path fill="none" stroke-width="6.355841"
              d="M -171.807236,-0.959961 C -184.122284,-47.968887 -132.081436,-136.954819 -85.072510,-149.269852"
              class="1 3" stroke-opacity="1.0" stroke="#cc4c4c"/>
        <path fill="none" stroke-width="1.8738128"
              d="M -171.807236,-0.959961 C -90.385460,-22.289991 63.742241,67.847610 85.072273,149.269394"
              class="1 4" stroke-opacity="1.0" stroke="#4c4ccc"/>
        <path fill="none" stroke-width="2.521057"
              d="M -171.807236,-0.959961 C -149.568695,-82.138313 5.556654,-170.548035 86.735008,-148.309479"
              class="1 7" stroke-opacity="1.0" stroke="#4ccc4c"/>
        <path fill="none" stroke-width="1.7589092"
              d="M -171.807236,-0.959961 C -102.700249,-69.298973 103.468742,-68.147018 171.807755,0.959969"
              class="1 10" stroke-opacity="1.0" stroke="#ccb04c"/>
        <path fill="none" stroke-width="4.7529263"
              d="M -86.735245,148.309952 C -145.918655,88.461441 -144.921021,-90.086441 -85.072510,-149.269852"
              class="2 3" stroke-opacity="1.0" stroke="#ff007f"/>
        <path fill="none" stroke-width="0.0"
              d="M -86.735245,148.309952 C -52.181854,114.140343 50.902657,114.715996 85.072273,149.269394"
              class="2 4" stroke-opacity="1.0" stroke="#7f00ff"/>
        <path fill="none" stroke-width="2.0771604"
              d="M -86.735245,148.309952 C -111.365082,54.292011 -7.282932,-123.679642 86.735008,-148.309479"
              class="2 7" stroke-opacity="1.0" stroke="#7f7f7f"/>
        <path fill="none" stroke-width="0.3881209"
              d="M -86.735245,148.309952 C -64.496643,67.131348 90.629150,-21.278633 171.807755,0.959969"
              class="2 10" stroke-opacity="1.0" stroke="#ff647f"/>
        <path fill="none" stroke-width="8.667391"
              d="M -85.072510,-149.269852 C 8.664299,-123.590958 110.751167,55.532581 85.072273,149.269394"
              class="3 4" stroke-opacity="1.0" stroke="#7f007f"/>
        <path fill="none" stroke-width="10.0"
              d="M -85.072510,-149.269852 C -50.518932,-183.439270 52.565578,-182.863068 86.735008,-148.309479"
              class="3 7" stroke-opacity="1.0" stroke="#7f7f00"/>
        <path fill="none" stroke-width="8.867005"
              d="M -85.072510,-149.269852 C -3.650497,-170.599945 150.477661,-80.462044 171.807755,0.959969"
              class="3 10" stroke-opacity="1.0" stroke="#ff6400"/>
        <path fill="none" stroke-width="7.3717823"
              d="M 85.072273,149.269394 C 25.889053,89.421074 26.886688,-89.126259 86.735008,-148.309479"
              class="4 7" stroke-opacity="1.0" stroke="#007f7f"/>
        <path fill="none" stroke-width="9.217177"
              d="M 85.072273,149.269394 C 72.757484,102.260406 124.798775,13.274761 171.807755,0.959969"
              class="4 10" stroke-opacity="1.0" stroke="#7f647f"/>
        <path fill="none" stroke-width="8.373363"
              d="M 86.735008,-148.309479 C 133.603455,-135.470139 184.647095,-45.908470 171.807755,0.959969"
              class="7 10" stroke-opacity="1.0" stroke="#7fe300"/>
    </g>
    <g id="nodes">
        <circle fill-opacity="1.0" fill="#999999" r="10.0" cx="-171.80724"
                class="1" cy="-0.95996106" stroke="#000000" stroke-opacity="1.0"
                stroke-width="1.0"/>
        <circle fill-opacity="1.0" fill="#ff00ff" r="10.0" cx="-86.735245"
                class="2" cy="148.30995" stroke="#000000" stroke-opacity="1.0"
                stroke-width="1.0"/>
        <circle fill-opacity="1.0" fill="#ff0000" r="10.0" cx="-85.07251"
                class="3" cy="-149.26985" stroke="#000000" stroke-opacity="1.0"
                stroke-width="1.0"/>
        <circle fill-opacity="1.0" fill="#0000ff" r="10.0" cx="85.07227"
                class="4" cy="149.2694" stroke="#000000" stroke-opacity="1.0"
                stroke-width="1.0"/>
        <circle fill-opacity="1.0" fill="#00ff00" r="10.0" cx="86.73501"
                class="7" cy="-148.30948" stroke="#000000" stroke-opacity="1.0"
                stroke-width="1.0"/>
        <circle fill-opacity="1.0" fill="#ffc800" r="10.0" cx="171.80775"
                class="10" cy="0.9599685" stroke="#000000" stroke-opacity="1.0"
                stroke-width="1.0"/>
    </g>
</svg>